<svg width="30" height="30" viewBox="0 0 30 30" fill="none" xmlns="http://www.w3.org/2000/svg">
<path fill-rule="evenodd" clip-rule="evenodd" d="M4.48106 2.64706H1V1H5.86181L6.89222 6.33986L28.9486 5.92535V15.2699C29.0491 15.6219 29.028 16.0928 28.6492 16.4905C28.2425 16.9177 27.5949 17.0588 26.8629 17.0588H8.9606L9.31668 18.9042C9.42781 19.2048 9.68737 19.6731 10.105 20.0645C10.5309 20.4636 11.0984 20.7647 11.8457 20.7647H28.1144V22.4118H11.8457C10.5908 22.4118 9.62878 21.8893 8.95618 21.259C8.29776 20.642 7.89489 19.9045 7.71711 19.3781L7.69947 19.3258L4.48106 2.64706ZM8.64277 15.4118H26.8629C27.0465 15.4118 27.1824 15.3992 27.2801 15.383V7.60406L7.20895 7.98127L8.64277 15.4118Z" fill="#272727"/>
<path d="M13.5143 26.5294C13.5143 27.8939 12.3937 29 11.0115 29C9.62916 29 8.50859 27.8939 8.50859 26.5294C8.50859 25.1649 9.62916 24.0588 11.0115 24.0588C12.3937 24.0588 13.5143 25.1649 13.5143 26.5294Z" fill="#272727"/>
<path d="M25.1943 29C26.5766 29 27.6972 27.8939 27.6972 26.5294C27.6972 25.1649 26.5766 24.0588 25.1943 24.0588C23.8121 24.0588 22.6915 25.1649 22.6915 26.5294C22.6915 27.8939 23.8121 29 25.1943 29Z" fill="#272727"/>
</svg>
