<svg width="14" height="14" viewBox="0 0 14 14" fill="none" xmlns="http://www.w3.org/2000/svg">
    <g clip-path="url(#clip0_338_53)">
        <path
            d="M3.66596 8.70519C3.44185 8.51865 3.18239 8.37885 2.903 8.29409C2.50256 8.1941 1.47636 9.47738 1.06365 9.45294C0.650935 9.42849 1.93927 7.03526 2.72788 6.54972C3.51649 6.06418 5.61797 6.41639 5.61797 6.41639L3.66596 8.70519Z"
            fill="#088D32" />
        <path
            d="M5.58119 10.1356C5.7662 10.3608 5.90389 10.6208 5.98609 10.9C6.08202 11.3 4.78142 12.3077 4.80262 12.7188C4.82381 13.1299 7.23873 11.8733 7.73621 11.0934C8.2337 10.3134 7.90129 8.2168 7.90129 8.2168L5.58119 10.1356Z"
            fill="#088D32" />
        <path
            d="M2.759 9.6508C2.759 9.6508 5.47842 2.20665 13.9513 0.0478516C13.9513 0.0478516 12.6127 7.39201 4.40983 11.263L2.759 9.6508Z"
            fill="#43A921" />
        <path
            d="M9.17954 5.93356C9.82577 5.93356 10.3496 5.41174 10.3496 4.76805C10.3496 4.12435 9.82577 3.60254 9.17954 3.60254C8.53332 3.60254 8.00945 4.12435 8.00945 4.76805C8.00945 5.41174 8.53332 5.93356 9.17954 5.93356Z"
            fill="white" />
        <path
            d="M2.32515 10.6172C2.32515 10.6172 1.6492 11.7016 1.90575 12.0005C2.1623 12.2993 3.30116 11.5705 3.30116 11.5705C3.30116 11.5705 3.32012 13.1715 0.0485482 13.9504C0.0485482 13.9515 0.27387 11.1038 2.32515 10.6172Z"
            fill="#FF9B05" />
        <path
            d="M2.45004 11.4778C2.11541 11.1545 5.67588 7.54016 6.09306 7.89792C6.51023 8.25569 2.74452 11.7644 2.45004 11.4778Z"
            fill="#088D32" />
    </g>
    <defs>
        <clipPath id="clip0_338_53">
            <rect width="14" height="14" fill="white" />
        </clipPath>
    </defs>
</svg>