<svg width="30" height="30" viewBox="0 0 30 30" fill="none" xmlns="http://www.w3.org/2000/svg">
<path fill-rule="evenodd" clip-rule="evenodd" d="M10.6 10.3542C10.6 7.94943 12.5699 6 15 6C17.4301 6 19.4 7.94943 19.4 10.3542V17.4792C19.4 19.8839 17.4301 21.8333 15 21.8333C12.5699 21.8333 10.6 19.8839 10.6 17.4792V10.3542ZM18.2 13.9167V10.3542C18.2 8.60527 16.7673 7.1875 15 7.1875C13.2327 7.1875 11.8 8.60526 11.8 10.3542V13.9167H18.2Z" fill="#767676"/>
<path d="M15.4 23.6196C18.5272 23.4159 21 20.8413 21 17.6951V13.125H19.8V17.6951C19.8 20.3184 17.651 22.4451 15 22.4451C12.349 22.4451 10.2 20.3184 10.2 17.6951V13.125H9V17.6951C9 20.8413 11.4728 23.4159 14.6 23.6196V24.2083H11.4V25H18.6V24.2083H15.4V23.6196Z" fill="#767676"/>
</svg>
