<svg width="30" height="30" viewBox="0 0 30 30" fill="none" xmlns="http://www.w3.org/2000/svg">
<path fill-rule="evenodd" clip-rule="evenodd" d="M20.352 9C20.352 11.9486 17.9617 14.3388 15.0132 14.3388C12.0646 14.3388 9.67432 11.9486 9.67432 9C9.67432 6.05144 12.0646 3.66117 15.0132 3.66117C17.9617 3.66117 20.352 6.05144 20.352 9ZM17.8215 15.4139C20.2893 14.3318 22.0132 11.8672 22.0132 9C22.0132 5.13401 18.8792 2 15.0132 2C11.1472 2 8.01316 5.13401 8.01316 9C8.01316 11.9162 9.79638 14.4159 12.3319 15.4681C9.18168 16.1464 6.78562 17.9034 5.03967 19.9623C2.81329 22.5878 1.62127 25.7238 1.19869 27.8366L1 28.8301H28.9936L28.8324 27.863C28.48 25.7484 27.3912 22.6068 25.2471 19.9749C23.5164 17.8505 21.0868 16.0494 17.8215 15.4139ZM26.9916 27.1689H3.06949C3.58398 25.3553 4.62097 23.0245 6.30663 21.0367C8.30281 18.6827 11.1852 16.8301 15.2131 16.8301C19.2382 16.8301 22.0493 18.6797 23.9592 21.0241C25.5817 23.0158 26.5408 25.3542 26.9916 27.1689Z" fill="#272727"/>
</svg>
