<svg width="30" height="30" viewBox="0 0 30 30" fill="none" xmlns="http://www.w3.org/2000/svg">
<path fill-rule="evenodd" clip-rule="evenodd" d="M18.0723 19.5333C16.8108 20.4812 15.2413 21.043 13.5403 21.043C9.37589 21.043 6 17.6755 6 13.5215C6 9.36749 9.37589 6 13.5403 6C17.7046 6 21.0805 9.36749 21.0805 13.5215C21.0805 15.4068 20.3851 17.1301 19.2363 18.4501L24 22.8365L22.9233 24L18.0723 19.5333ZM19.4931 13.5215C19.4931 16.801 16.8279 19.4595 13.5403 19.4595C10.2526 19.4595 7.58742 16.801 7.58742 13.5215C7.58742 10.242 10.2526 7.58348 13.5403 7.58348C16.8279 7.58348 19.4931 10.242 19.4931 13.5215Z" fill="#0074E9"/>
</svg>
